<?xml version="1.0" encoding="UTF-8"?>
<svg id="Layer_1" data-name="Layer 1" xmlns="http://www.w3.org/2000/svg" viewBox="0 0 990 990">
  <defs>
    <style>
      .cls-1 {
        fill: #c0ac30;
      }

      .cls-1, .cls-2 {
        stroke-width: 0px;
      }

      .cls-2 {
        fill: #690c37;
      }
    </style>
  </defs>
  <path class="cls-1" d="m741.94,397.63v56.03c0,1.79-1.23,3.25-2.74,3.25h-41.92c-1.51,0-2.74-1.45-2.74-3.25v-59.68c0-1.79-1.23-3.25-2.74-3.25h-2.93c-1.51,0-2.74,1.45-2.74,3.25v69.66c0,1.79,1.23,3.25,2.74,3.25h50.34c1.51,0,2.74,1.45,2.74,3.25v49.72c0,1.79-1.23,3.25-2.74,3.25h-106.15c-1.51,0-2.74,1.45-2.74,3.25v3.48c0,1.79,1.23,3.25,2.74,3.25h106.15c1.51,0,2.74,1.45,2.74,3.25v56.03c0,34.86-23.83,63.12-53.22,63.12h-270.48c-1.51,0-2.74-1.45-2.74-3.25v-115.9c0-1.79,1.23-3.25,2.74-3.25h41.91c1.51,0,2.74,1.45,2.74,3.25v62.95h228.92c1.51,0,2.74-1.45,2.74-3.25v-3.48c0-1.79-1.23-3.25-2.74-3.25h-106.13c-1.51,0-2.74-1.45-2.74-3.25v-248.3c0-1.79,1.23-3.25,2.74-3.25h41.91c1.51,0,2.74,1.45,2.74,3.25v125.88c0,1.79,1.23,3.25,2.74,3.25h2.93c1.51,0,2.74-1.45,2.74-3.25v-125.88c0-1.79,1.23-3.25,2.74-3.25h47.26c29.39,0,53.22,28.26,53.22,63.12Z"/>
  <rect class="cls-1" x="527.11" y="334.51" width="47.4" height="188.6"/>
  <path class="cls-1" d="m518.69,334.51v188.6h-159.02c-4.65,0-8.41,4.47-8.41,9.98h0s55.82,0,55.82,0v122.4h-108.53c-27.88,0-50.48-26.81-50.48-59.87v-194.91h103.2v56.2h-55.82v142.38h64.23v-9.98h-55.82v-122.42h55.82v-66.18h103.2v56.2h-47.39c-4.65,0-8.41,4.47-8.41,9.98h0s64.21,0,64.21,0v-76.16h-223.23c0-31.05,21.22-56.22,47.4-56.22h223.23Z"/>
  <path class="cls-2" d="m518.69,544.89v32.62c0,6.52-4.45,11.8-9.95,11.8h-27.51c-5.49,0-9.95-5.28-9.95-11.8v-34.44c0-5.51,3.77-9.98,8.41-9.98h29.04c5.49,0,9.95,5.28,9.95,11.8Z"/>
  <path class="cls-2" d="m574.51,544.89v32.62c0,6.52-4.45,11.8-9.95,11.8h-27.51c-5.49,0-9.95-5.28-9.95-11.8v-32.62c0-6.52,4.45-11.8,9.95-11.8h27.51c5.49,0,9.95,5.28,9.95,11.8Z"/>
</svg>